<svg id="Layer_1" data-name="Layer 1" xmlns="http://www.w3.org/2000/svg" viewBox="0 0 696 262.6"><defs><style>.cls-1{fill:#1a2852;}</style></defs><title>BTSVISION_Logo_DarkBlue</title><path class="cls-1" d="M572.91,336.64c6.38-20.68-13.19-27.83-13.19-27.83l-53-.19v65.15H568c14.42-6.38,14.55-19.32,14.55-19.32A17.7,17.7,0,0,0,572.91,336.64Zm-50.74-11.85h33.32l.11,0a4.74,4.74,0,0,1,0,8.55H522.17Zm41.62,33.07H522.17v-8.64h41.49l.11,0A4.77,4.77,0,0,1,563.79,357.86Z" transform="translate(-505.55 -308.62)"/><polygon class="cls-1" points="123.19 0 119.02 3.92 114.85 0 81.58 0 81.58 16.17 110.94 16.17 110.94 65.15 119.02 65.15 127.11 65.15 127.11 16.17 156.47 16.17 156.47 0 123.19 0"/><path class="cls-1" d="M737.58,336.87l-.84-.5a21.94,21.94,0,0,0-11.11-3h0v-.05H692.35a3.47,3.47,0,0,1-1.93-.58l-.16-.1a4.46,4.46,0,0,1,.07-7.47h0a3.53,3.53,0,0,1,1.89-.55H743v-16H692.16a16.62,16.62,0,0,0-8.42,2.3l-2,1.19a19.39,19.39,0,0,0,0,33.42l3.76,2.2a9.53,9.53,0,0,0,4.83,1.32h0v0H727a3.46,3.46,0,0,1,1.92.58l.17.11a4.45,4.45,0,0,1-.07,7.46l0,0a3.55,3.55,0,0,1-1.88.54H673v16h54.21a16.58,16.58,0,0,0,8.41-2.29l2-1.2A19.38,19.38,0,0,0,737.58,336.87Z" transform="translate(-505.55 -308.62)"/><polygon class="cls-1" points="63.19 99.45 41.11 141.96 19.02 99.45 0 99.45 33.83 164.04 41.11 164.04 48.38 164.04 82.21 99.45 63.19 99.45"/><rect class="cls-1" x="95.11" y="99.45" width="15.96" height="64.6"/><path class="cls-1" d="M699.33,435.76l-.84-.5a22,22,0,0,0-11.12-3h0v0H654.1a3.47,3.47,0,0,1-1.93-.58l-.16-.11a4.45,4.45,0,0,1,.07-7.46l0,0a3.62,3.62,0,0,1,1.89-.55h50.75v-16H653.91a16.61,16.61,0,0,0-8.42,2.29l-2,1.2a19.38,19.38,0,0,0,0,33.41l3.76,2.21a9.52,9.52,0,0,0,4.83,1.31h0v0h36.65a3.47,3.47,0,0,1,1.92.59l.16.1a4.45,4.45,0,0,1-.06,7.46l0,0a3.49,3.49,0,0,1-1.88.55H634.7v16h54.21a16.59,16.59,0,0,0,8.41-2.3l2-1.2A19.38,19.38,0,0,0,699.33,435.76Z" transform="translate(-505.55 -308.62)"/><rect class="cls-1" x="218.74" y="99.45" width="15.96" height="64.6"/><path class="cls-1" d="M824.06,408.07H757.43v57.32l8.68,7.28h66V414.84ZM815,455.81H774.4v-32H815Z" transform="translate(-505.55 -308.62)"/><polygon class="cls-1" points="343.7 164.04 343.7 99.45 359.62 99.45 398.68 139.7 398.68 99.45 414.6 99.45 414.6 164.04 399.87 164.04 359.62 122.51 359.62 164.04 343.7 164.04"/><path class="cls-1" d="M1005.23,408.07H946.7l-8.34,6.64v58H955v-16.6h41.85v16.6h16.68v-58ZM997,440.37H955V423.26h42Z" transform="translate(-505.55 -308.62)"/><path class="cls-1" d="M1005.23,506.62H946.7l-8.34,6.64v58H955v-16.6h41.85v16.6h16.68v-58ZM997,538.92H955V521.81h42Z" transform="translate(-505.55 -308.62)"/><path class="cls-1" d="M904.91,506.62H849.17v64.6h16.09V555H904s19.32-3.57,19.4-24S904.91,506.62,904.91,506.62Zm-3.23,32.3H865.09V523.13h36.42s4.94.77,5.62,7.24S901.68,538.92,901.68,538.92Z" transform="translate(-505.55 -308.62)"/><path class="cls-1" d="M1092.45,552.46c5.59-3,12.67-9.15,12.72-21.5.09-20.42-18.47-24.34-18.47-24.34H1031v64.6H1047V555h23.87l16.47,16.26h23.83Zm-9-13.54h-36.6V523.13h36.43s4.93.77,5.61,7.24S1083.47,538.92,1083.47,538.92Z" transform="translate(-505.55 -308.62)"/><path class="cls-1" d="M1092.45,453.9c5.59-3,12.67-9.14,12.72-21.49.09-20.43-18.47-24.34-18.47-24.34H1031v64.6H1047V456.41h23.87l16.47,16.26h23.83Zm-9-13.53h-36.6V424.58h36.43s4.93.77,5.61,7.23S1083.47,440.37,1083.47,440.37Z" transform="translate(-505.55 -308.62)"/><polygon class="cls-1" points="674.19 99.45 674.19 127.4 653.75 127.4 652.75 127.4 632.3 127.4 632.3 99.45 616.09 99.45 616.09 136.47 624.13 144.09 644.9 144.09 644.94 164.04 652.75 164.04 653.75 164.04 661.55 164.04 661.59 144.09 682.36 144.09 690.4 136.47 690.4 99.45 674.19 99.45"/><polygon class="cls-1" points="696 198 669.96 198 630.89 225.1 630.89 198 614.43 198 614.43 262.6 630.89 262.6 630.89 244.72 644.34 235.07 671.75 262.6 694.47 262.6 657.42 225.68 696 198"/></svg>